<?xml version="1.0" encoding="iso-8859-1"?>
<!-- Generator: Adobe Illustrator 19.1.0, SVG Export Plug-In . SVG Version: 6.00 Build 0)  -->
<svg version="1.1" id="Capa_1" xmlns="http://www.w3.org/2000/svg" xmlns:xlink="http://www.w3.org/1999/xlink" x="0px" y="0px"
	 viewBox="0 0 398.465 398.465" style="enable-background:new 0 0 398.465 398.465;" xml:space="preserve">
<g>
	<path d="M369.658,28.812c38.41,38.4,38.41,100.89,0,139.3l-82.73,82.74c-6.13,6.12-13,11.37-20.43,15.66
		c-4.28,7.43-9.53,14.29-15.64,20.41l-82.74,82.73c-19.21,19.21-44.44,28.81-69.66,28.81c-25.23,0-50.45-9.6-69.65-28.8
		c-38.41-38.41-38.41-100.9,0-139.31l82.74-82.74c6.12-6.12,12.98-11.37,20.41-15.65c4.28-7.43,9.53-14.3,15.66-20.42l82.74-82.74
		c18.57-18.57,43.31-28.8,69.64-28.8c0.01,0,0.01,0,0.01,0C326.348,0.002,351.087,10.233,369.658,28.812z M359.057,157.503
		c32.55-32.56,32.55-85.53,0-118.09c-15.75-15.74-36.72-24.41-59.05-24.41h-0.01c-22.33,0-43.29,8.66-59.04,24.41l-81.92,81.92
		c15.88-3.64,32.58-3.35,48.47,1.03l58.2-58.2c9.15-9.15,21.33-14.19,34.29-14.19c0.01,0,0.01,0,0.01,0
		c12.97,0,25.15,5.04,34.3,14.19s14.19,21.33,14.19,34.3c0,12.96-5.04,25.14-14.19,34.29l-82.74,82.74
		c-7.72,7.72-17.95,12.65-28.8,13.88c-1.87,0.21-3.74,0.32-5.59,0.32c-12.81,0-25.03-5.02-34.21-14.19
		c-8.02-8.03-12.86-18.4-13.94-29.46c-4.29,1.66-8.18,4.19-11.52,7.53l-18.01,18.01c4.17,10.77,10.46,20.4,18.73,28.67
		c9.35,9.35,20.43,16.17,32.93,20.25c21.93,7.19,46.08,4.98,66.25-6.07c6.91-3.78,13.27-8.56,18.91-14.19L359.057,157.503z
		 M333.497,98.463c0-8.96-3.48-17.37-9.8-23.69c-6.32-6.32-14.73-9.8-23.69-9.8h-0.01c-8.96,0-17.37,3.48-23.68,9.79l-53.3,53.3
		c10.31,4.81,19.65,11.35,27.84,19.55c8.2,8.2,14.75,17.53,19.55,27.83l53.29-53.29C330.017,115.832,333.497,107.423,333.497,98.463
		z M240.958,204.883l18.02-18.01c-4.17-10.76-10.45-20.38-18.72-28.65c-9.35-9.35-20.44-16.17-32.95-20.26
		c-21.94-7.18-46.08-4.97-66.25,6.07c-6.92,3.78-13.27,8.55-18.9,14.19l-82.74,82.73c-32.56,32.56-32.56,85.54,0,118.1
		c32.55,32.56,85.53,32.56,118.09,0l81.92-81.92c-7.28,1.67-14.72,2.52-22.19,2.52c-8.82,0-17.66-1.19-26.27-3.56l-58.21,58.21
		c-4.58,4.58-9.91,8.12-15.72,10.53c-5.81,2.4-12.1,3.66-18.58,3.66c-12.97,0-25.15-5.04-34.3-14.18
		c-18.91-18.92-18.91-49.69,0-68.61l82.74-82.74c7.72-7.72,17.95-12.64,28.8-13.87c14.79-1.68,29.31,3.37,39.81,13.87
		c8.03,8.03,12.86,18.4,13.94,29.45C233.727,210.762,237.628,208.223,240.958,204.883z M214.577,214.572
		c-0.61-7.88-3.98-15.3-9.68-21c-5.7-5.7-13.12-9.06-21-9.68c0.62,7.88,3.98,15.3,9.68,21S206.697,213.962,214.577,214.572z
		 M122.158,323.693l53.29-53.29c-10.3-4.8-19.63-11.35-27.83-19.55c-8.2-8.19-14.74-17.53-19.55-27.84l-53.3,53.3
		c-13.06,13.06-13.06,34.32,0,47.39c3.15,3.16,6.84,5.6,10.85,7.26c4.02,1.66,8.36,2.53,12.84,2.53
		C107.418,333.492,115.838,330.013,122.158,323.693z"/>
	<path style="fill:#F48C6C;" d="M359.057,39.412c32.55,32.56,32.55,85.53,0,118.09l-82.74,82.74c-5.64,5.63-12,10.41-18.91,14.19
		c-20.17,11.05-44.32,13.26-66.25,6.07c-12.5-4.08-23.58-10.9-32.93-20.25c-8.27-8.27-14.56-17.9-18.73-28.67l18.01-18.01
		c3.34-3.34,7.23-5.87,11.52-7.53c1.08,11.06,5.92,21.43,13.94,29.46c9.18,9.17,21.4,14.19,34.21,14.19c1.85,0,3.72-0.11,5.59-0.32
		c10.85-1.23,21.08-6.16,28.8-13.88l82.74-82.74c9.15-9.15,14.19-21.33,14.19-34.29c0-12.97-5.04-25.15-14.19-34.3
		s-21.33-14.19-34.3-14.19c0,0,0,0-0.01,0c-12.96,0-25.14,5.04-34.29,14.19l-58.2,58.2c-15.89-4.38-32.59-4.67-48.47-1.03
		l81.92-81.92c15.75-15.75,36.71-24.41,59.04-24.41h0.01C322.337,15.002,343.307,23.673,359.057,39.412z"/>
	<path style="fill:#3DD0F2;" d="M258.978,186.872l-18.02,18.01c-3.33,3.34-7.23,5.88-11.51,7.53c-1.08-11.05-5.91-21.42-13.94-29.45
		c-10.5-10.5-25.02-15.55-39.81-13.87c-10.85,1.23-21.08,6.15-28.8,13.87l-82.74,82.74c-18.91,18.92-18.91,49.69,0,68.61
		c9.15,9.14,21.33,14.18,34.3,14.18c6.48,0,12.77-1.26,18.58-3.66c5.81-2.41,11.14-5.95,15.72-10.53l58.21-58.21
		c8.61,2.37,17.45,3.56,26.27,3.56c7.47,0,14.91-0.85,22.19-2.52l-81.92,81.92c-32.56,32.56-85.54,32.56-118.09,0
		c-32.56-32.56-32.56-85.54,0-118.1l82.74-82.73c5.63-5.64,11.98-10.41,18.9-14.19c20.17-11.04,44.31-13.25,66.25-6.07
		c12.51,4.09,23.6,10.91,32.95,20.26C248.527,166.492,254.807,176.113,258.978,186.872z"/>
</g>
<g>
</g>
<g>
</g>
<g>
</g>
<g>
</g>
<g>
</g>
<g>
</g>
<g>
</g>
<g>
</g>
<g>
</g>
<g>
</g>
<g>
</g>
<g>
</g>
<g>
</g>
<g>
</g>
<g>
</g>
</svg>
